<?xml version="1.0" encoding="UTF-8"?>
<svg id="Layer_2" data-name="Layer 2" xmlns="http://www.w3.org/2000/svg" viewBox="0 0 38.71 38.7">
  <defs>
    <style>
      .cls-1 {
        fill: #e96b24;
      }
    </style>
  </defs>
  <g id="Layer_1-2" data-name="Layer 1">
    <path class="cls-1" d="m38.69,19.34c0-3.35.02-6.71,0-10.06C38.67,3.95,34.76.02,29.45.01,22.74,0,16.03,0,9.32.02,3.91.03.03,3.93.02,9.36,0,15.98,0,22.61.01,29.23c.01,5.6,3.87,9.45,9.46,9.46,6.62.01,13.24.01,19.87,0,5.4,0,9.33-3.9,9.36-9.28.01-3.36,0-6.71,0-10.07h-.01Zm-13.25,14.43c-.42.8-1.46.69-2.32-.16-3.17-3.13-6.32-6.26-9.47-9.39-.65-.64-1.32-1.27-1.94-1.94-.83-.9-1.73-1.32-3.09-.36.31-1.17.53-2.01.77-2.85.47-1.66,1.54-1.95,2.75-.73,3.66,3.66,7.29,7.38,10.98,11.01.68.66,1.64,1.03,2.44,1.57.22.15.54.44.51.61-.14.76-.27,1.57-.63,2.24Zm2.03-7.42c-.44,1.49-1.43,1.73-2.61.58-2.95-2.9-5.89-5.82-8.83-8.73-.9-.89-1.8-1.77-2.68-2.69-.82-.86-1.69-1.22-3-.3.33-1.25.53-2.31.9-3.31.44-1.18,1.59-1.28,2.61-.26,3.51,3.52,7,7.05,10.5,10.58.31.31.63.6.92.93.75.87,1.62,1.29,2.85.68-.24.94-.43,1.73-.66,2.52Zm1.74-6.82c-.41,1.58-1.48,1.88-2.66.72-3.81-3.76-7.62-7.52-11.39-11.31-.9-.91-1.8-1.31-3.09-.45.27-1.05.48-1.93.72-2.79.48-1.65,1.54-1.95,2.76-.73,3.75,3.75,7.49,7.52,11.21,11.3.83.84,1.64,1.57,2.93.97-.17.83-.29,1.57-.48,2.29Z"/>
  </g>
</svg>