<?xml version="1.0" encoding="UTF-8"?>
<svg id="Layer_2" data-name="Layer 2" xmlns="http://www.w3.org/2000/svg" viewBox="0 0 185.85 38.7">
  <defs>
    <style>
      .cls-1 {
        fill: #fff;
      }

      .cls-2 {
        fill: #e96b24;
      }
    </style>
  </defs>
  <g id="Layer_1-2" data-name="Layer 1">
    <g>
      <path class="cls-2" d="m38.69,19.35c0-3.36.02-6.71,0-10.07C38.67,3.96,34.76.03,29.45.01,22.74,0,16.03,0,9.32.02,3.91.04.03,3.94.02,9.37,0,15.99,0,22.61.01,29.24c.01,5.59,3.87,9.44,9.46,9.45,6.62,0,13.24,0,19.87,0,5.4,0,9.33-3.9,9.36-9.29.01-3.35,0-6.71,0-10.06h-.01Zm-13.25,14.42c-.42.8-1.46.7-2.32-.16-3.17-3.12-6.32-6.25-9.47-9.38-.65-.65-1.32-1.27-1.94-1.94-.83-.9-1.73-1.32-3.09-.37.31-1.17.53-2.01.77-2.84.47-1.66,1.54-1.96,2.75-.74,3.66,3.67,7.29,7.38,10.98,11.02.68.66,1.64,1.03,2.44,1.56.22.15.54.45.51.62-.14.76-.27,1.56-.63,2.23Zm2.03-7.42c-.44,1.5-1.43,1.74-2.61.59-2.95-2.9-5.89-5.82-8.83-8.74-.9-.89-1.8-1.77-2.68-2.68-.82-.86-1.69-1.22-3-.3.33-1.26.53-2.32.9-3.31.44-1.18,1.59-1.29,2.61-.27,3.51,3.52,7,7.06,10.5,10.58.31.31.63.61.92.93.75.87,1.62,1.29,2.85.69-.24.93-.43,1.73-.66,2.51Zm1.74-6.81c-.41,1.58-1.48,1.88-2.66.72-3.81-3.76-7.62-7.52-11.39-11.32-.9-.91-1.8-1.31-3.09-.45.27-1.05.48-1.92.72-2.78.48-1.65,1.54-1.95,2.76-.74,3.75,3.76,7.49,7.52,11.21,11.31.83.84,1.64,1.56,2.93.97-.17.83-.29,1.57-.48,2.29Z"/>
      <g>
        <path class="cls-1" d="m55.7,16.35c.74.66,1.12,1.49,1.13,2.51v8.72h-3.73v-7.34c-.05-1.14-.62-1.71-1.71-1.71-.85,0-1.54.4-2.05,1.2-.52.8-.77,1.83-.77,3.09v4.75h-3.74v-11.66h3.39l.27,1.87c.43-.76,1.02-1.36,1.77-1.79.76-.43,1.65-.64,2.68-.64,1.1,0,2.02.33,2.76.99Z"/>
        <path class="cls-1" d="m60.61,18.41c.56-.94,1.35-1.69,2.37-2.23,1.02-.54,2.18-.81,3.48-.81s2.44.27,3.43.81c.99.54,1.75,1.29,2.28,2.23.53.94.8,2.01.8,3.2s-.27,2.27-.8,3.23c-.53.96-1.29,1.71-2.28,2.25-.99.54-2.15.81-3.48.81s-2.45-.25-3.46-.76c-1-.51-1.79-1.23-2.35-2.17-.56-.94-.84-2.06-.84-3.36,0-1.19.28-2.26.84-3.2Zm3.72,5.54c.53.61,1.21.92,2.03.92s1.54-.3,2.07-.91c.52-.6.79-1.38.79-2.32s-.26-1.72-.79-2.32c-.52-.6-1.21-.91-2.07-.91s-1.49.31-2.03.92c-.53.61-.8,1.38-.8,2.31s.27,1.69.8,2.31Z"/>
        <path class="cls-1" d="m80.74,10.8v5.07h2.83v2.91h-2.83v8.8h-3.74v-8.8h-1.81v-2.91h1.81v-5.07h3.74Z"/>
        <path class="cls-1" d="m94.56,23.95l1.65,2.77c-.64.36-1.32.64-2.03.85-.71.21-1.39.32-2.03.32-1.39,0-2.58-.26-3.59-.79-1.01-.52-1.77-1.26-2.28-2.21-.52-.95-.77-2.04-.77-3.27,0-1.14.3-2.19.89-3.15.6-.96,1.41-1.72,2.44-2.28,1.03-.56,2.16-.84,3.39-.84,1.67,0,3.05.49,4.12,1.47,1.08.98,1.77,2.37,2.09,4.19l-8.54,2.72c.57.66,1.34.99,2.32.99.75,0,1.52-.26,2.32-.77Zm-4.62-4.83c-.5.57-.75,1.33-.75,2.29v.24l5.12-1.73c-.37-1.1-1.17-1.65-2.37-1.65-.84,0-1.5.28-2,.85Z"/>
        <path class="cls-1" d="m119.28,16.3c.68.64,1.04,1.49,1.08,2.53v8.75h-3.71v-7.2c-.04-.59-.13-1.03-.29-1.32s-.47-.46-.93-.49c-.87,0-1.55.42-2.04,1.27-.49.85-.73,1.84-.73,2.97v4.78h-3.74v-7.2c-.04-.59-.14-1.03-.32-1.32-.18-.29-.51-.46-.99-.49-.84,0-1.49.42-1.97,1.27-.48.85-.72,1.82-.72,2.92v4.83h-3.74v-11.66h3.39l.27,1.84c.94-1.62,2.35-2.43,4.22-2.43.94,0,1.72.19,2.33.57.61.38,1.04.95,1.27,1.69.5-.69,1.09-1.24,1.77-1.65.68-.41,1.39-.61,2.12-.61,1.14,0,2.05.32,2.73.96Z"/>
        <path class="cls-1" d="m136.74,15.92v11.66h-3.74v-1.44c-1.12,1.17-2.42,1.76-3.9,1.76-1.73,0-3.13-.52-4.2-1.55-1.08-1.03-1.61-2.56-1.61-4.59,0-1.28.26-2.41.79-3.37.52-.97,1.22-1.72,2.09-2.25.87-.53,1.81-.8,2.8-.8s1.85.16,2.45.47c.6.31,1.14.75,1.6,1.32l.24-1.2h3.47Zm-3.74,7.18v-2.85c-.21-.57-.58-1.02-1.11-1.36-.52-.34-1.14-.51-1.85-.51-.82,0-1.52.3-2.09.91-.58.6-.87,1.37-.87,2.29,0,.6.14,1.16.43,1.67.28.51.66.9,1.13,1.19.47.28.98.43,1.53.43,1.3,0,2.24-.59,2.83-1.76Z"/>
        <path class="cls-1" d="m141.67,27.32c-.84-.34-1.53-.81-2.08-1.41l1.55-2.05c1.03.96,2,1.44,2.91,1.44.48,0,.87-.08,1.16-.23.29-.15.44-.38.44-.68,0-.36-.17-.63-.51-.81-.34-.19-.72-.34-1.13-.47-.42-.12-.7-.2-.84-.24-1.01-.32-1.77-.8-2.27-1.43-.5-.63-.75-1.36-.75-2.17,0-.62.16-1.23.49-1.83.33-.6.84-1.08,1.53-1.47.69-.38,1.56-.57,2.59-.57.96,0,1.78.1,2.45.29.68.2,1.32.52,1.95.96l-1.41,2.19c-.36-.28-.75-.52-1.19-.71-.44-.19-.83-.28-1.19-.28-.43,0-.77.09-1.04.27-.27.18-.4.39-.4.64-.02.37.14.65.47.84.33.19.84.38,1.53.57.11.04.22.07.33.11.12.04.24.07.36.11,1.83.6,2.75,1.71,2.75,3.31,0,.75-.19,1.43-.56,2.05-.37.62-.94,1.12-1.69,1.51-.76.38-1.68.57-2.76.57-.96,0-1.86-.17-2.69-.51Z"/>
        <path class="cls-1" d="m157.34,10.8v5.07h2.83v2.91h-2.83v8.8h-3.74v-8.8h-1.81v-2.91h1.81v-5.07h3.74Z"/>
        <path class="cls-1" d="m171.15,23.95l1.65,2.77c-.64.36-1.32.64-2.03.85-.71.21-1.39.32-2.03.32-1.39,0-2.58-.26-3.59-.79-1.01-.52-1.77-1.26-2.28-2.21-.52-.95-.77-2.04-.77-3.27,0-1.14.3-2.19.89-3.15.6-.96,1.41-1.72,2.44-2.28,1.03-.56,2.16-.84,3.39-.84,1.67,0,3.05.49,4.12,1.47,1.08.98,1.77,2.37,2.09,4.19l-8.54,2.72c.57.66,1.34.99,2.32.99.75,0,1.52-.26,2.32-.77Zm-4.62-4.83c-.5.57-.75,1.33-.75,2.29v.24l5.12-1.73c-.37-1.1-1.17-1.65-2.37-1.65-.84,0-1.5.28-2,.85Z"/>
        <path class="cls-1" d="m182.75,16.91c.56-.5,1.13-.89,1.72-1.16.59-.28,1.05-.41,1.39-.41l-.19,3.74c-.11-.02-.26-.03-.45-.03-.75,0-1.41.2-1.97.59-.57.39-1.01.89-1.31,1.51-.3.61-.45,1.24-.45,1.88v4.56h-3.71v-11.66h3.36l.29,2.67c.32-.62.76-1.18,1.32-1.68Z"/>
      </g>
    </g>
  </g>
</svg>